<?xml version="1.0" encoding="UTF-8"?>
<svg xmlns="http://www.w3.org/2000/svg" xmlns:xlink="http://www.w3.org/1999/xlink" width="360pt" height="115.62pt" viewBox="0 0 360 115.62" version="1.1">
<defs>
<clipPath id="clip1">
  <path d="M 0 0 L 345 0 L 345 115.621094 L 0 115.621094 Z M 0 0 "/>
</clipPath>
</defs>
<g id="surface1">
<path style=" stroke:none;fill-rule:nonzero;fill:rgb(13.699341%,12.199402%,12.5%);fill-opacity:1;" d="M 143.675781 24.652344 C 148.285156 24.652344 151.992188 20.917969 151.992188 16.316406 C 151.992188 11.714844 148.285156 7.988281 143.675781 7.988281 C 139.070313 7.988281 135.359375 11.714844 135.359375 16.316406 C 135.359375 20.917969 139.070313 24.652344 143.675781 24.652344 "/>
<g clip-path="url(#clip1)" clip-rule="nonzero">
<path style=" stroke:none;fill-rule:nonzero;fill:rgb(13.699341%,12.199402%,12.5%);fill-opacity:1;" d="M 324.070313 56.363281 C 325.765625 56.351563 328.03125 56.238281 328.03125 56.238281 C 328.753906 56.074219 331.488281 44.757813 331.488281 44.757813 C 331.308594 43.738281 328.25 43.945313 328.25 43.945313 C 324.179688 43.648438 324.578125 44.664063 324.578125 44.664063 L 322.453125 50.652344 C 321.121094 55.53125 322.847656 56.339844 322.847656 56.339844 C 322.847656 56.339844 324.070313 56.363281 324.070313 56.320313 L 323.386719 60.03125 C 321.914063 60.039063 320.257813 60.097656 319.859375 60.285156 C 319.320313 61.417969 314.75 72.179688 318.746094 72.675781 C 326.519531 74.019531 329.761719 68.734375 330.804688 67.785156 C 331.378906 67.71875 336.671875 67.613281 337.355469 67.800781 C 337.25 70.101563 334.65625 75.015625 333.109375 76.085938 C 330.984375 76.65625 309.851563 76.65625 306.722656 75.648438 C 304.632813 74.78125 303.949219 72.503906 304.558594 69.429688 C 303.769531 68.332031 310.679688 52.074219 309.671875 50.816406 L 303.769531 54.628906 C 303.371094 55.730469 288.179688 104.484375 288.179688 104.484375 C 288.179688 104.484375 287.496094 107.027344 290.917969 105.929688 C 292.03125 104.148438 293.113281 102.054688 293.328125 100.796875 L 298.367188 100.796875 C 298.980469 101.847656 291.277344 114.855469 290.125 114.832031 C 287.425781 116.070313 276.839844 115.664063 273.925781 114.867188 C 272.988281 113.433594 292.175781 56.539063 293.042969 51.21875 C 293.796875 48.617188 285.15625 51.738281 283.679688 53.21875 C 282.746094 54.109375 277.957031 74.828125 276.839844 75.683594 C 273.707031 76.65625 268.417969 76.460938 266.941406 75.683594 C 266.796875 73.082031 269.246094 67.105469 270 64.339844 C 265.175781 67.914063 257.941406 68.121094 257.941406 68.121094 C 257.148438 70.5625 255.816406 73.199219 255.816406 73.199219 C 253.585938 75.636719 248.722656 75.636719 248.722656 75.636719 C 240.371094 76.460938 230.003906 75.636719 230.003906 75.636719 C 230.003906 75.636719 228.816406 75.636719 227.054688 70.804688 C 225.757813 68.929688 231.839844 52.269531 231.121094 50.570313 C 229.214844 52.6875 227.773438 53.496094 225.71875 53.613281 C 224.75 54.304688 220.714844 70.109375 218.554688 75.683594 C 216.21875 76.460938 208.082031 76.25 206.425781 75.683594 C 205.234375 74.425781 214.164063 48.824219 212.90625 47.761719 C 211.71875 47.40625 206.386719 49.425781 205.128906 51.382813 C 203.796875 52.269531 198.71875 74.621094 197.316406 75.371094 C 196.09375 76.25 187.777344 76.25 186.589844 75.683594 C 186.335938 73.855469 189.503906 66.5625 189.035156 65.011719 C 186.550781 66.492188 181.332031 68.503906 179.496094 67.800781 C 176.796875 78.078125 172.945313 75.84375 158.726563 75.878906 C 157.5 77.265625 147.78125 114.3125 146.558594 114.832031 C 146.808594 114.808594 136.980469 115.457031 134.605469 114.867188 C 133.128906 115.664063 147.492188 71.511719 147.492188 71.511719 L 151.992188 56.828125 C 147.347656 62.226563 134.316406 73.730469 128.664063 75.359375 C 126.613281 75.949219 126.074219 75.347656 124.5625 74.769531 C 122.257813 73.511719 125.710938 65.683594 125.675781 65.011719 C 123.15625 66.492188 117.972656 68.503906 116.136719 67.800781 C 113.398438 78.078125 109.152344 75.742188 94.933594 75.789063 C 93.707031 76.355469 83.738281 114.035156 83.015625 114.832031 C 83.269531 114.808594 72.757813 115.457031 70.414063 114.867188 C 68.90625 115.664063 83.953125 72.597656 83.59375 71.660156 C 66.277344 77.464844 41.292969 84.171875 26.496094 72.675781 C 15.480469 65.484375 15.695313 45.578125 14.542969 43.878906 C 14.328125 43.589844 13.96875 43.335938 11.914063 43.171875 L 0 43.089844 C 0.0351563 41.507813 1.261719 38.664063 2.160156 38.097656 C 2.230469 38.132813 10.367188 38.074219 12.960938 38.015625 C 13.429688 38.003906 13.679688 37.992188 13.714844 37.980469 C 15.121094 37.679688 16.199219 37.195313 16.597656 36.433594 C 24.226563 17.332031 36.828125 3.515625 56.089844 2.820313 C 69.121094 1.492188 83.230469 7.828125 92.484375 14.972656 C 91.871094 16.316406 86.328125 21.007813 85.175781 20.152344 C 82.726563 18.347656 77.039063 15.714844 75.890625 14.972656 C 68.761719 10.371094 58.355469 7.988281 49.574219 11.722656 C 42.914063 14.894531 36.074219 24.570313 32.976563 34.800781 C 32.976563 34.800781 32.148438 37.046875 34.597656 38.050781 L 85.824219 38.050781 L 82.546875 43.089844 L 34.019531 43.089844 C 29.953125 45.046875 31.320313 51.671875 31.96875 53.011719 C 42.40625 75.53125 70.019531 73.8125 85.824219 64.550781 C 86.617188 60.480469 93.277344 39.277344 94.464844 38.386719 C 95.722656 37.449219 104.726563 37.910156 106.09375 38.523438 C 106.921875 39.277344 95.941406 70.757813 96.730469 71.660156 C 98.386719 71.984375 101.410156 72.179688 102.382813 71.453125 C 103.679688 70.132813 110.664063 42.734375 110.664063 42.734375 C 111.996094 39.066406 110.375 38.375 109.511719 38.050781 C 109.945313 36.433594 115.992188 36.433594 119.414063 36.433594 C 120.886719 37.011719 121.753906 38.15625 122.257813 39.644531 C 122.941406 41.3125 117.289063 60.976563 117.394531 61.738281 C 121.140625 64.261719 124.992188 60.398438 127.511719 56.664063 C 127.511719 56.664063 131.902344 39.679688 133.488281 38.203125 C 135.539063 37.449219 143.890625 37.449219 145.296875 38.050781 C 145.910156 39.472656 138.996094 58.570313 140.003906 59.507813 C 141.445313 59.183594 154.117188 48.328125 154.117188 48.328125 C 154.835938 47.601563 156.671875 39.277344 157.859375 38.386719 C 159.121094 37.449219 168.660156 37.449219 170.027344 38.050781 C 170.714844 39.277344 159.335938 70.757813 160.128906 71.660156 C 161.75 71.984375 164.808594 72.179688 165.78125 71.453125 C 167.078125 70.132813 174.023438 42.734375 174.023438 42.734375 C 175.355469 39.066406 173.773438 38.375 172.871094 38.050781 C 173.339844 36.433594 179.386719 36.433594 182.808594 36.433594 C 184.246094 37.011719 185.148438 38.15625 185.652344 39.644531 C 186.335938 41.3125 180.683594 60.976563 180.757813 61.738281 C 184.5 64.261719 188.386719 60.398438 190.90625 56.664063 C 191.410156 55.730469 208.691406 3.515625 209.269531 0.394531 C 210.3125 -0.347656 220.609375 0.1875 220.609375 0.1875 C 220.464844 2.09375 208.082031 41.914063 207.433594 43.300781 C 210.3125 41.3125 223.128906 37.046875 224.460938 38.050781 C 229.824219 36.835938 227.449219 47.160156 227.449219 47.160156 C 228.996094 47.195313 231.046875 45.160156 232.882813 42.953125 C 235.691406 39.890625 244.441406 35.207031 251.171875 38.988281 C 252.179688 40.699219 250.917969 41.832031 250.917969 41.832031 C 249.335938 42.457031 246.203125 42.570313 244.945313 43.738281 C 244.546875 44.757813 237.851563 66.910156 237.816406 68.332031 C 237.886719 70.34375 238.859375 70.5625 239.398438 71.046875 L 244.296875 71.046875 C 247.679688 70.5625 251.964844 50.652344 254.414063 40.292969 C 254.414063 40.292969 251.171875 38.988281 254.195313 38.050781 C 257.652344 36.835938 260.066406 37.726563 262.476563 39.679688 C 263.59375 40.421875 264.058594 40.652344 264.457031 41.890625 C 265.570313 43.542969 259.597656 61.207031 260.246094 62.261719 C 260.855469 63.507813 266.796875 62.433594 271.835938 58.492188 C 273.132813 57.589844 276.804688 39.023438 277.921875 38.097656 C 279.792969 37.449219 286.488281 37.449219 288.214844 38.050781 C 288.648438 39.34375 286.417969 43.148438 286.632813 43.3125 C 287.820313 43.945313 294.121094 39.867188 299.699219 38.46875 C 303.265625 37.578125 309.671875 38.050781 305.855469 47.589844 C 305.171875 49.335938 310.066406 47.40625 311.078125 45.738281 C 311.902344 43.542969 313.128906 38.871094 315.179688 38.097656 C 323.171875 36.546875 342.179688 37.242188 343.441406 38.050781 C 344.699219 38.46875 345.0625 40.292969 344.882813 42.734375 C 344.917969 42.734375 340.8125 58.699219 340.019531 59.507813 C 335.195313 60.273438 327.601563 60.039063 323.386719 60.03125 L 324.070313 56.363281 "/>
</g>
<path style=" stroke:none;fill-rule:nonzero;fill:rgb(13.699341%,12.199402%,12.5%);fill-opacity:1;" d="M 352.226563 47.21875 L 353.304688 47.21875 L 353.304688 44.824219 L 354.167969 44.824219 C 354.710938 44.824219 355.105469 44.882813 355.355469 45.023438 C 355.714844 45.242188 355.894531 45.703125 355.894531 46.410156 L 355.894531 46.894531 L 355.933594 47.09375 C 355.933594 47.113281 355.933594 47.136719 355.96875 47.148438 C 355.96875 47.171875 355.96875 47.195313 355.96875 47.21875 L 356.976563 47.21875 L 356.941406 47.136719 C 356.90625 47.09375 356.90625 46.988281 356.867188 46.824219 C 356.867188 46.664063 356.867188 46.515625 356.867188 46.375 L 356.867188 45.925781 C 356.867188 45.625 356.761719 45.3125 356.542969 44.988281 C 356.328125 44.664063 355.96875 44.46875 355.5 44.386719 C 355.859375 44.328125 356.148438 44.234375 356.363281 44.097656 C 356.761719 43.84375 356.976563 43.4375 356.976563 42.90625 C 356.976563 42.144531 356.652344 41.625 356.003906 41.367188 C 355.679688 41.21875 355.105469 41.148438 354.347656 41.148438 L 352.226563 41.148438 Z M 355.285156 43.9375 C 355.066406 44.027344 354.710938 44.074219 354.277344 44.074219 L 353.304688 44.074219 L 353.304688 41.878906 L 354.203125 41.878906 C 354.816406 41.878906 355.25 41.945313 355.5 42.109375 C 355.789063 42.257813 355.894531 42.546875 355.894531 42.988281 C 355.894531 43.460938 355.714844 43.773438 355.285156 43.9375 Z M 358.378906 40.292969 C 357.300781 39.21875 356.003906 38.6875 354.457031 38.6875 C 352.945313 38.6875 351.648438 39.21875 350.570313 40.292969 C 349.488281 41.378906 348.949219 42.675781 348.949219 44.203125 C 348.949219 45.726563 349.488281 47.035156 350.570313 48.121094 C 351.648438 49.207031 352.945313 49.738281 354.457031 49.738281 C 356.003906 49.738281 357.300781 49.207031 358.378906 48.121094 C 359.460938 47.035156 360 45.726563 360 44.203125 C 360 42.675781 359.460938 41.367188 358.378906 40.292969 Z M 357.839844 40.824219 C 358.742188 41.761719 359.207031 42.882813 359.207031 44.203125 C 359.207031 45.519531 358.742188 46.652344 357.839844 47.589844 C 356.90625 48.515625 355.789063 48.988281 354.457031 48.988281 C 353.160156 48.988281 352.042969 48.515625 351.109375 47.589844 C 350.171875 46.652344 349.742188 45.519531 349.742188 44.203125 C 349.742188 42.882813 350.171875 41.761719 351.109375 40.824219 C 352.042969 39.902344 353.160156 39.425781 354.457031 39.425781 C 355.789063 39.425781 356.90625 39.902344 357.839844 40.824219 "/>
</g>
</svg>
