<?xml version="1.0" encoding="UTF-8"?>
<svg xmlns="http://www.w3.org/2000/svg" xmlns:xlink="http://www.w3.org/1999/xlink" width="264.94pt" height="113.39pt" viewBox="0 0 264.94 113.39" version="1.1">
<defs>
<clipPath id="clip1">
  <path d="M 0 0 L 40 0 L 40 113.390625 L 0 113.390625 Z M 0 0 "/>
</clipPath>
<clipPath id="clip2">
  <path d="M 40 62 L 81 62 L 81 113.390625 L 40 113.390625 Z M 40 62 "/>
</clipPath>
<clipPath id="clip3">
  <path d="M 88 56 L 133 56 L 133 113.390625 L 88 113.390625 Z M 88 56 "/>
</clipPath>
<clipPath id="clip4">
  <path d="M 85 0 L 168 0 L 168 113.390625 L 85 113.390625 Z M 85 0 "/>
</clipPath>
<clipPath id="clip5">
  <path d="M 171 0 L 214 0 L 214 113.390625 L 171 113.390625 Z M 171 0 "/>
</clipPath>
<clipPath id="clip6">
  <path d="M 219 0 L 264.941406 0 L 264.941406 67 L 219 67 Z M 219 0 "/>
</clipPath>
</defs>
<g id="surface1">
<g clip-path="url(#clip1)" clip-rule="nonzero">
<path style=" stroke:none;fill-rule:nonzero;fill:rgb(13.299561%,12.199402%,12.5%);fill-opacity:1;" d="M 39.542969 113.390625 L 0 113.390625 L 0 -0.00390625 L 39.542969 -0.00390625 L 39.542969 113.390625 "/>
</g>
<path style=" stroke:none;fill-rule:nonzero;fill:rgb(13.299561%,12.199402%,12.5%);fill-opacity:1;" d="M 40.707031 -0.00390625 L 80.246094 -0.00390625 L 80.246094 47.097656 Z M 40.707031 -0.00390625 "/>
<path style=" stroke:none;fill-rule:nonzero;fill:rgb(13.299561%,12.199402%,12.5%);fill-opacity:1;" d="M 120.1875 -0.00390625 L 162.433594 -0.00390625 L 162.433594 53.363281 Z M 120.1875 -0.00390625 "/>
<g clip-path="url(#clip2)" clip-rule="nonzero">
<path style=" stroke:none;fill-rule:nonzero;fill:rgb(13.299561%,12.199402%,12.5%);fill-opacity:1;" d="M 40.707031 113.390625 L 80.246094 113.390625 L 80.246094 62.359375 Z M 40.707031 113.390625 "/>
</g>
<g clip-path="url(#clip3)" clip-rule="nonzero">
<path style=" stroke:none;fill-rule:nonzero;fill:rgb(13.299561%,12.199402%,12.5%);fill-opacity:1;" d="M 132.378906 113.390625 L 88.777344 113.390625 L 88.777344 56.789063 Z M 132.378906 113.390625 "/>
</g>
<path style=" stroke:none;fill-rule:nonzero;fill:rgb(13.299561%,12.199402%,12.5%);fill-opacity:1;" d="M 64.804688 32.890625 C 64.085938 33.609375 52.671875 43.722656 52.671875 43.722656 L 42.6875 43.722656 L 42.6875 67.5625 L 52.671875 67.5625 C 52.671875 67.5625 64.085938 76.371094 64.804688 77.09375 C 65.527344 77.816406 67.117188 77.527344 67.117188 77.527344 L 67.117188 32.453125 C 67.117188 32.453125 65.527344 32.164063 64.804688 32.890625 "/>
<g clip-path="url(#clip4)" clip-rule="nonzero">
<path style=" stroke:none;fill-rule:nonzero;fill:rgb(13.299561%,12.199402%,12.5%);fill-opacity:1;" d="M 114.78125 8.042969 C 114.78125 8.042969 113.628906 6.75 114.59375 4.609375 C 115.957031 1.5625 119.046875 -0.00390625 119.046875 -0.00390625 C 119.046875 -0.00390625 111.445313 -0.00390625 108.347656 -0.00390625 C 105.253906 -0.00390625 100.214844 2.128906 93.621094 6.777344 C 87.03125 11.433594 85.09375 22.285156 85.09375 28.488281 C 85.09375 34.691406 87.667969 39.835938 87.667969 39.835938 L 137.796875 106.351563 C 137.796875 106.351563 138.324219 106.992188 138.324219 107.9375 C 138.324219 108.585938 137.910156 110.0625 137.035156 111.402344 C 136.40625 112.371094 135.386719 113.390625 134.835938 113.390625 L 143.558594 113.390625 C 143.558594 113.390625 151.554688 113.316406 157.226563 108.445313 C 162.894531 103.574219 167.546875 98.125 167.546875 86.929688 C 167.546875 77.789063 164.691406 74.246094 164.691406 74.246094 L 114.78125 8.042969 "/>
</g>
<g clip-path="url(#clip5)" clip-rule="nonzero">
<path style=" stroke:none;fill-rule:nonzero;fill:rgb(13.299561%,12.199402%,12.5%);fill-opacity:1;" d="M 213.460938 113.390625 L 171.429688 113.390625 L 171.429688 -0.00390625 L 213.460938 -0.00390625 L 213.460938 113.390625 "/>
</g>
<g clip-path="url(#clip6)" clip-rule="nonzero">
<path style=" stroke:none;fill-rule:nonzero;fill:rgb(13.299561%,12.199402%,12.5%);fill-opacity:1;" d="M 234.144531 -0.00390625 L 219.519531 -0.00390625 L 219.519531 66.664063 L 234.144531 66.664063 C 234.144531 66.664063 264.9375 65.730469 264.9375 33.328125 C 264.9375 -0.00390625 234.144531 -0.00390625 234.144531 -0.00390625 "/>
</g>
</g>
</svg>
