<?xml version="1.0" encoding="utf-8"?>
<!-- Generator: Adobe Illustrator 19.2.1, SVG Export Plug-In . SVG Version: 6.00 Build 0)  -->
<svg version="1.1" id="layer" xmlns="http://www.w3.org/2000/svg" xmlns:xlink="http://www.w3.org/1999/xlink" x="0px" y="0px"
	 viewBox="0 0 652 652" style="enable-background:new 0 0 652 652;" xml:space="preserve">
<style type="text/css">
	.st0{fill:#231815;}
</style>
<path class="st0" d="M149.3,214.3h78.9c25.4,1.2,36.9,8.4,38.7,9.3c13.7,7.1,18.2,23.4,18.4,28.8c0.4,8.7-1.7,19.9-7.4,27
	c-9.6,12.2-27.7,16.5-27.7,16.5l34.3,52.6h0.6v-28.2h7.4c3.5,19.2,16.3,35,20.7,38.2c14.2,10.2,23.8,10.3,30.1,10.5
	c16.8,0.5,23.9-7.3,28-15c1.7-3.4,3-11.6,1.2-17.8c-2.3-8.2-13.8-14.5-16.7-15.6c-1.8-0.7-33.4-15.5-37.5-17.4
	c-15.9-7.3-25.1-21.1-25.6-22.1c-5.6-10.4-5.4-22.2-5.2-26.6c0.7-15.3,11-24.5,13.8-27.2c13.6-12.9,37.5-13.4,45.2-12.9
	c17.8,1.4,29.9,7.2,34.6,7.4c5.2,0.2,7.6-7.5,7.6-7.5h7.5V264h-6.8c0,0-5.1-12.9-8-17.4c-13.2-20.2-26.1-22.8-33.7-24
	c-5.3-0.9-17.4-0.6-23.1,3c-12,7.6-10.5,20-10.2,21.3c2.1,12.8,16.3,18.5,18.8,19.6c2.6,1,38.3,17.7,41.5,19.5
	c19.5,10.6,24.7,25.2,24.7,25.2c3.3,8.4,3.5,17.7,3.2,21.6c-1.4,18.4-17.6,31.8-23.2,35.1c-16.8,9.8-38.4,9.1-43.1,8.9
	c-19.1-0.9-32.1-6.7-32.1-6.7v4h-46.2l-46.3-74.5h-6v48.8c0,21.2,19.8,19.9,19.8,19.9v5.8h-76.2v-5.8c21.6,0.8,19.9-20.5,19.9-20.5
	V237.2c-1.1-19.1-19.9-17.3-19.9-17.3V214.3z M205.8,292.3c0,0,12.5-0.7,15.5-1.1c11.1-1.8,17.9-7.6,20.1-10.6
	c2.3-3.1,4.6-8.6,5.2-17c0.6-6.7,0-15.5,0-15.5c-0.7-12.6-8.9-19.9-11.2-21.5c-7-5.1-16.5-3.8-18.3-3.9c-11.4-0.4-11.4,7.9-11.4,7.9
	L205.8,292.3z"/>
<path class="st0" d="M407.1,214.4h24.4c5.9,0.2,8.1,1.5,8.9,1.8c6.1,2.2,7.5,9.8,7.5,12c0,6.3-3,9-4.3,10.3
	c-4.4,4.1-14.1,4.1-14.1,4.1h-5.8v15.1c0.1,5.7,6.6,5.5,6.6,5.5v1.6h-23.2v-1.6c6.3-0.4,5.8-5.6,5.8-5.6v-36.2
	c-0.3-5.4-5.8-5.5-5.8-5.5V214.4z M423.7,240c0,0,4.7,0.1,6-0.4c2.4-0.9,5.2-3.5,5.8-5.9c0.8-3.3,1.2-9-0.3-12.3
	c-2-4.3-6-4.6-8.8-4.5s-2.7,3.7-2.7,3.7V240z"/>
<path class="st0" d="M476.6,214.4v1.6c0,0,5.8-0.3,5.8,5.5v31.1c0,0-0.3,6.3,7.4,10.6c1.2,0.7,4.3,2.4,10.9,2.6
	c2.1,0,10.6-0.4,14.9-6c1.6-2.1,3.3-5.7,3.3-13.7l0-24.7c0,0,0.3-5.4,5.3-5.4v-1.6H509v1.6c0,0,6.5,0,6.6,5.4v24.8
	c0,0,0.1,7.9-3.1,11.9c-0.6,0.7-3,3.6-8.5,4.3c-0.8,0.1-6,0.5-8.4-4.1c-0.9-1.6-2.2-4.9-2.3-8.2v-28.6c0,0-0.2-5.4,6.5-5.4v-1.6
	H476.6z"/>
<path class="st0" d="M524.4,214.4v1.6c0,0,4.8-0.3,5.3,5.4v37.1c0,0,0.2,4.3-5.8,4.7v1.7h38.9c0,0,2.7-10.1,3.1-17.4h-2.2
	c0,0-3.6,14.4-14.6,14.9h-3.9c-1.5,0-4.6-0.5-4.7-3.8v-37.1c0,0-0.5-5.4,6.6-5.4v-1.6H524.4z"/>
<path class="st0" d="M448.6,283c-0.1,4-1.9,7-3.5,8.4c-1.3,1.2-3,2.3-4.4,2.8c-1.2,0.4-3,0.8-3,0.8l15.3,23h0.8v1.7h-13.7
	l-13.6-23.2l-2.1,0v16.1c0.1,5.7,5.9,5.5,5.9,5.5v1.6h-22.5v-1.6c6.3-0.4,5.8-5.6,5.8-5.6v-36.2c-0.3-5.4-5.8-5.5-5.8-5.5v-1.7h24.4
	c5.8,0.2,8.1,1.5,8.9,1.8C447.2,273.2,448.6,280.9,448.6,283 M424.5,293.9c0,0,4.7,0.1,6-0.4c2.4-0.9,5.2-3.5,5.8-5.9
	c0.8-3.3,1.2-8.4-0.4-11.7c-2-4.3-6-4.6-8.7-4.4s-2.7,4.1-2.7,4.1V293.9z"/>
<path class="st0" d="M454,317.9v1.6h38.2c0,0,2.3-8.6,2.7-15.6h-2.5c0,0-1,11.6-15.9,13.1c0,0-6.8,0.4-7.2-2.4v-19.9h2.9
	c0,0,8.5,0.7,8.6,11.5h1.6v-24.8h-1.6c0,0-1.2,10.7-8.7,10.7h-2.9v-17.8c0,0,0-2.7,3.7-2.8c1.6,0,6.3,0,6.8,0
	c0.5,0,9.6,0.3,10.3,12.3h1.7v-14.9h-38.9v1.6c0,0,5.6,0,5.8,3.8v40C458.4,314.5,458.4,317.8,454,317.9"/>
<path class="st0" d="M495,317.9v1.6h39.5c0,0,2.3-8.6,2.7-15.6h-2.5c0,0-1,11.6-15.9,13.1c0,0-6.8,0.4-7.2-2.4v-19.9h3
	c0,0,8.5,0.7,8.6,11.5h1.6v-24.8h-1.6c0,0-1.2,10.7-8.7,10.7h-2.9v-17.8c0,0,0-2.7,3.7-2.8c1.6,0,6.3,0,6.8,0
	c0.5,0,9.6,0.3,10.3,12.3h1.7v-14.9h-38.9v1.6c0,0,5.7,0,5.8,3.8v40C500.7,314.5,500.8,317.9,495,317.9"/>
<path class="st0" d="M536.3,269.1H559c6.4,0.3,11.3,2.3,12.5,3c11.8,6.4,11.6,21.5,11.5,23.4c-0.5,9.4-4.6,15.2-7.4,17.8
	c-6.6,6.1-15.3,6.3-15.3,6.3h-24v-1.7c6,0,5.8-3.3,5.8-3.3v-40.1c-0.1-4-5.8-3.8-5.8-3.8V269.1z M552.8,313.7c0,0-0.1,3.3,4.5,3.2
	c2.6-0.1,5.1-0.5,7.5-2.2c1.9-1.4,3.7-3.4,4.6-6.4c2.1-7.4,1.9-14.2,1.7-16.9c-0.7-8.1-2.1-12.6-4.5-15.5c-3-3.7-8.2-4.5-10.9-4.4
	c-2.7,0.2-2.7,4.1-2.7,4.1L552.8,313.7z"/>
<path class="st0" d="M422.4,374.3c1.6,0,7.3,0.4,11.9-2.7c1.6-1.1,6-5.3,6.4-11.1c0.1-1.2,0-4.2-0.9-6.9c0,0-1.4-4.6-6.8-8
	c-0.9-0.6-10.7-5.8-11.5-6.2c-0.7-0.3-4.6-2.1-5.2-6.2c-0.1-0.4-0.5-4.4,2.8-6.8c1.6-1.1,4.9-1.2,6.4-0.9c2.1,0.4,5.7,1.2,9.3,7.6
	c0.8,1.4,2.2,5.3,2.2,5.3h1.6v-15.5h-1.7c0,0-0.6,2.4-2.1,2.4c-1.3-0.1-4.6-1.9-9.5-2.3c-2.1-0.2-8.7,0-12.5,4.1
	c-0.8,0.9-3.6,3.8-3.8,8.6c0,1.4-0.1,5.2,1.4,8.4c0.1,0.3,2.7,4.7,7.1,7c1.1,0.6,9.8,5.3,10.4,5.5c0.8,0.4,4,2.4,4.6,4.9
	c0.5,2,0.1,4.6-0.3,5.7c-1.1,2.4-3.1,4.9-7.7,4.8c-1.7-0.1-4.4-0.1-8.3-3.3c-1.2-1-5.4-6.3-6.4-12.3h-1.8v17.8h1.7
	c0,0,0.1-2.5,2.6-2.4C413.8,371.8,417.9,374.3,422.4,374.3"/>
<path class="st0" d="M441,372.7v1.7H456v-1.7c0,0-6.6-0.3-6.6-4.5v-36.9l17.5,43.1h1.4l17.4-44.7v39.4c0,0,0,3.7-5.7,3.7v1.7h22.3
	v-1.7c0,0-5.7-0.3-5.8-4v-39.3c0,0-0.3-3.8,5.8-3.9v-1.6H485l-13.8,34.7l-13.8-34.7h-16.4v1.6c0,0,5.7-0.1,5.7,3.7v39.2
	C446.8,368.2,447,372.7,441,372.7"/>
<path class="st0" d="M504.9,372.7v1.7h24.1v-1.7c0,0-6.5-0.1-6.6-3.9v-40.2c0,0,0-3.2,6.6-3.2v-1.7h-24v1.7c0,0,6.2-0.4,6.6,3.8
	v39.5C511.5,368.7,511.9,372.7,504.9,372.7"/>
<path class="st0" d="M569.6,338.6h1.6v-14.8h-40.6v14.8h1.6c0.8-13.7,13.2-12.3,13.2-12.3l0,42.4c0,0,0.5,3.9-6.6,3.9v1.7h24.1v-1.7
	c0,0-6.5-0.1-6.6-3.9v-42.5C569.8,326,569.6,338.6,569.6,338.6"/>
<path class="st0" d="M574.5,372.7v1.7h22.4v-1.7c0,0-5.8-0.3-5.8-3.5v-18.8h16.6v18.9c0,0,0,3.5-5.8,3.5v1.7h22.4v-1.7
	c0,0-5.8,0-5.8-3.6v-39.8c0,0,0.1-3.8,5.8-3.8v-1.7h-22.3v1.7c0,0,5.7,0,5.7,3.8v17.7h-16.6v-17.7c0,0,0.3-3.8,5.8-3.8v-1.7h-22.4
	v1.7c0,0,5.8-0.4,5.8,3.8v39.8C580.3,369.1,580.1,372.7,574.5,372.7"/>
<rect x="25" y="204.4" class="st0" width="600" height="3.3"/>
<rect x="25" y="381.8" class="st0" width="600" height="3.3"/>
<rect x="25" y="444.7" class="st0" width="600" height="3.3"/>
<path class="st0" d="M68.2,390.9h-1.6c0,0-0.6,1.7-3.7,1.6c-3.3-0.1-5.9-1.6-12.4-1.6c-1.4,0-8.5,0.6-14,4.8
	c-1.3,1-7.3,5.3-8.8,14.3c-0.9,5.7-0.8,10.9,2.4,17c0.7,1.4,5.4,7.4,14.2,10.3c2.8,0.9,6.2,0.9,9,0.9c2.8,0,10.5-1,15.7-4.4v-16.5
	c0,0-0.2-3.2,5-3.2v-0.8H56.7v0.8c0,0,5.8-0.3,5.8,3.4v13.7c0,0,0.1,4.3-9.6,4.3c-2,0-10.8-0.5-15.1-8.6c-1.2-2.3-2.9-7.8-2.4-16.7
	c0.1-2,1.2-6.9,4.3-10.9c2.9-3.7,7.4-5.2,9.8-5.6c1.7-0.3,3.4-0.3,4.6-0.1c1.1,0.2,9.2,0.3,12.5,12.1h1.6V390.9z"/>
<path class="st0" d="M90.5,391.7v1.6c0,0,5.8-0.5,5.8,3.9v27.3c0,0,0.3,6.6,5.4,10.2c1.7,1.2,6.5,3.1,14.5,3c3,0,8.7-1.7,11.3-4.9
	c0.5-0.6,3.2-3.5,3.7-10.1V398c0,0-0.3-4.7,6.5-4.7v-1.6h-16.5v1.6c0,0,6.6,0,6.6,4.8v25.5c0,0,0.3,5.3-3.9,8.4
	c-1.2,0.9-5.2,2.8-9.1,2.6c-6.2-0.3-9-2.5-10.4-5.7c-0.8-1.9-1.2-3.9-1.3-5.5v-26.4c0,0-0.5-4,6.5-3.7v-1.6H90.5z"/>
<path class="st0" d="M155.2,435.8v1.5H175v-1.5c0,0-5.9,0.3-6.6-3.5v-36c0,0-0.1-3.1,6.6-3v-1.6h-19.9v1.6c0,0,6.2-0.2,6.6,3.5v35.4
	C161.7,432.2,161.6,435.8,155.2,435.8"/>
<path class="st0" d="M229.5,403.3h1.5v-11.6h-38.9v11.6h1.5c0.2-6,3.8-9.2,8.4-9.3l6.2,0l0,38.3c0,0,0.1,3.3-6.6,3.3v1.7l19.9,0
	v-1.7c0,0-6.6,0.4-6.6-3.2V394h6.7C229.8,395.3,229.5,403.3,229.5,403.3"/>
<path class="st0" d="M437.7,263.2c3.5-0.5,5.5-5.8,5.5-5.8l16.1-43.9h2.4c0,0,10.1,26.7,10.5,28.1c0.4,1.3,6.9,16.7,7.2,17.9
	c1.3,4,4.7,3.7,4.7,3.7v1.7h-22.3v-1.7c7,0,5.5-3.8,5.1-5c-0.2-0.7-2.6-7.3-2.6-7.3h-15.4c0,0-1.7,5.5-2.2,6.7
	c-2.4,5.8,5.2,5.6,5.2,5.6v1.7h-14.1V263.2z M450.2,247.5h13.2l-7-18.2L450.2,247.5z"/>
<path class="st0" d="M248,435.7c3.7-0.5,5.6-5.3,5.6-5.3l16.8-39.6h1.9c0,0,17.8,40.2,18.2,41.3c1.4,3.8,4.7,3.6,4.7,3.6v1.6h-17.4
	v-1.6c7.3,0,4.2-4.6,3.8-5.8c-0.2-0.6-3.1-7.6-3.1-7.6h-18c0,0-3.2,7-3.5,8.2c-1.4,5.5,4.2,5.1,4.2,5.1v1.6H248V435.7z M277.5,419.9
	l-7.7-18.5h-0.5l-7.7,18.5H277.5z"/>
<path class="st0" d="M312.6,391.7h20.5c3.4,0,5.7,0.3,7.9,1.2c2.1,0.9,3.8,2.2,5,4.1c1.2,2.1,2,4.6,1.8,8c-0.2,2-1.2,5.2-2.8,6.5
	c-4.1,3.5-8.7,3.3-9,3.3c-0.3,0,0,0.6,0,0.6l14,17.5c2,2.3,4.3,2.7,4.3,2.7h1.4v1.6h-10.6l-16.5-21.5H325v15.7
	c0,4.4,5.8,4.1,5.8,4.1v1.6h-18.2v-1.6c6.7,0,5.8-4.2,5.8-4.2v-34.1c0-4-5.8-4-5.8-4V391.7z M325,413.2c0,0,6.3,0.2,8.7-0.5
	c2.3-0.7,6.3-2.5,6.8-6.3c0.9-6.6-1.4-8.3-2.6-9.4c-2.5-2.2-5.8-2.8-8.6-2.8c-3.5,0-4.3,0.9-4.3,0.9L325,413.2z"/>
<path class="st0" d="M390,438.1c8.2-0.2,13.6-4.7,14.9-9.8c0.6-2.6,0.5-4.6-0.3-7.3c0,0-1.7-3.8-6.7-7.2c-0.8-0.6-10-5.9-10.7-6.3
	c-0.7-0.3-4.3-2.2-4.9-6.3c-0.1-0.4-0.5-4.4,2.6-6.9c1.5-1.2,4.6-1.2,6-1c2,0.4,6.2,0.8,9.5,6.9c0.8,1.4,1.7,4.7,1.7,4.7h1.6
	l-0.6-14.3h-1.6c0,0-1.4,2.1-2.7,2c-1.2,0-3.8-1.4-8.4-1.9c-2-0.2-7.9-0.1-11.4,4c-0.7,0.9-2.8,3.8-2.6,8.7c0,1.4,0.4,5.3,5.2,8.7
	c0.3,0.2,5.5,3.8,9.6,6.1c1.1,0.6,4.6,3.2,5,3.5c1,0.9,3.3,4.3,2.4,7.4c-1,3.7-4.1,5.5-5.9,5.9c-3.2,0.8-6,0.1-9.4-1.7
	c-1.4-0.7-6.2-4.2-7.1-10.4h-1.7l1.8,14.8l1.7,0.1c0,0,0.8-2.5,2-2.2C382.9,436.7,385.9,438.2,390,438.1"/>
<path class="st0" d="M604.9,397.6c0,5.2,4.2,9.4,9.4,9.4c5.2,0,9.4-4.2,9.4-9.4c0-5.2-4.2-9.4-9.4-9.4
	C609.1,388.2,604.9,392.5,604.9,397.6 M606.7,397.6c0-4.2,3.4-7.6,7.6-7.6s7.6,3.4,7.6,7.6c0,4.2-3.4,7.6-7.6,7.6
	S606.7,401.8,606.7,397.6"/>
<path class="st0" d="M612.6,397.3h1.4c0.6,0,1-0.1,1.3-0.3s0.6-0.4,0.7-0.8c0.2-0.3,0.3-0.7,0.3-1.1c0-0.3-0.1-0.6-0.2-0.9
	c-0.2-0.3-0.4-0.5-0.6-0.7c-0.3-0.2-0.7-0.3-1.4-0.3h-1.5V397.3z M612.6,403.1h-1.4v-10.9h3.4c0.8,0,1.5,0.1,1.9,0.4
	c0.4,0.2,0.8,0.6,1,1c0.2,0.5,0.4,0.9,0.4,1.5c0,0.4-0.1,0.8-0.3,1.2c-0.2,0.4-0.4,0.8-0.7,1.1c-0.3,0.3-0.8,0.6-1.4,0.9
	c0.2,0.1,0.4,0.3,0.5,0.4c0.1,0.1,0.3,0.3,0.4,0.6c0.2,0.3,0.3,0.5,0.4,0.7l1.7,3.2H617l-1.5-2.9c-0.4-0.7-0.8-1.3-1.4-1.8h-1.4
	V403.1z"/>
<path class="st0" d="M26,214.3h78.4c21.1,0,34,5.9,35.4,6.5c9,3.9,13.9,8.5,17,13c6.7,9.7,7,22,6.9,25c-0.1,4-0.8,9.2-1.8,12
	c-1.4,3.9-3.8,8.8-8.4,13.9c-5.3,5.7-13.9,10.5-17.3,11.9c-15.7,6.5-34,5.7-34,5.7H84.1V354c1.5,14.9,20.6,14.5,20.6,14.5v5.8H26
	v-5.8c19.3,0,19.8-15.2,19.8-15.2l0.1-116.8c0,0,0-0.3,0-0.4C45.3,219.5,26,220.2,26,220.2V214.3z M83.9,293.8
	c0,0,11.3-0.6,14.4-1.1c11.1-1.8,16.8-6.3,19-9.3c2.3-3.1,4.8-10.9,5.3-19.3c0.6-6.7,0.2-14.3,0.2-14.3c-0.7-12.6-7.2-20.4-9.5-22.1
	c-7-5.1-16.1-5.1-17.9-5.1c-11.4-0.4-11.4,7.9-11.4,7.9V293.8z"/>
</svg>
