<?xml version="1.0" encoding="UTF-8"?>
<svg xmlns="http://www.w3.org/2000/svg" xmlns:xlink="http://www.w3.org/1999/xlink" width="194pt" height="194pt" viewBox="0 0 194 194" version="1.1">
<g id="surface1">
<path style=" stroke:none;fill-rule:evenodd;fill:rgb(100%,100%,100%);fill-opacity:1;" d="M 0.621094 0.621094 L 193.378906 0.621094 L 193.378906 193.378906 L 0.621094 193.378906 L 0.621094 0.621094 "/>
<path style=" stroke:none;fill-rule:evenodd;fill:rgb(13.699341%,12.199402%,12.5%);fill-opacity:1;" d="M 86.660156 78.617188 L 89.714844 78.617188 L 89.714844 66.757813 L 92.035156 76.78125 L 94.121094 76.78125 L 96.441406 66.757813 L 96.441406 78.617188 L 99.496094 78.617188 L 99.496094 61.6875 L 94.792969 61.6875 L 93.074219 69.695313 L 91.363281 61.6875 L 86.660156 61.6875 L 86.660156 78.617188 "/>
<path style=" stroke:none;fill-rule:evenodd;fill:rgb(13.699341%,12.199402%,12.5%);fill-opacity:1;" d="M 122.066406 78.617188 L 125.195313 61.6875 L 129.71875 61.6875 L 132.835938 78.617188 L 129.90625 78.617188 L 129.171875 74.523438 L 125.742188 74.523438 L 125.007813 78.617188 Z M 127.449219 65.175781 L 126.222656 71.828125 L 128.679688 71.828125 Z M 127.449219 65.175781 "/>
<path style=" stroke:none;fill-rule:evenodd;fill:rgb(13.699341%,12.199402%,12.5%);fill-opacity:1;" d="M 75.167969 78.617188 L 78.292969 61.6875 L 82.816406 61.6875 L 85.933594 78.617188 L 83.003906 78.617188 L 82.269531 74.523438 L 78.839844 74.523438 L 78.105469 78.617188 Z M 80.550781 65.175781 L 79.324219 71.828125 L 81.777344 71.828125 Z M 80.550781 65.175781 "/>
<path style=" stroke:none;fill-rule:evenodd;fill:rgb(13.699341%,12.199402%,12.5%);fill-opacity:1;" d="M 100.355469 78.617188 L 103.480469 61.6875 L 108.003906 61.6875 L 111.121094 78.617188 L 108.191406 78.617188 L 107.460938 74.523438 L 104.027344 74.523438 L 103.292969 78.617188 Z M 105.738281 65.175781 L 104.511719 71.828125 L 106.964844 71.828125 Z M 105.738281 65.175781 "/>
<path style=" stroke:none;fill-rule:evenodd;fill:rgb(13.699341%,12.199402%,12.5%);fill-opacity:1;" d="M 66.730469 61.6875 L 70.152344 71.398438 L 70.152344 78.617188 L 73.207031 78.617188 L 73.207031 71.398438 L 76.636719 61.6875 L 73.824219 61.6875 L 71.683594 68.113281 L 69.542969 61.6875 L 66.730469 61.6875 "/>
<path style=" stroke:none;fill-rule:evenodd;fill:rgb(13.699341%,12.199402%,12.5%);fill-opacity:1;" d="M 111.792969 78.617188 L 114.855469 78.617188 L 114.855469 71.335938 L 118.214844 71.335938 L 118.214844 78.617188 L 121.28125 78.617188 L 121.28125 61.6875 L 118.214844 61.6875 L 118.214844 68.289063 L 114.855469 68.289063 L 114.855469 61.6875 L 111.792969 61.6875 L 111.792969 78.617188 "/>
<path style=" stroke:none;fill-rule:evenodd;fill:rgb(13.699341%,12.199402%,12.5%);fill-opacity:1;" d="M 92.800781 123.484375 C 64.144531 138.847656 24.1875 154.765625 10.8125 135.464844 C 2.007813 119.167969 28.632813 91.78125 67.363281 69.898438 L 68.167969 72.351563 L 68.125 75.652344 C 39.808594 93.558594 16.609375 117.644531 25.628906 128.394531 C 35.234375 137.539063 62.707031 135.421875 91.320313 120.648438 C 91.871094 121.453125 92.210938 122.679688 92.800781 123.484375 "/>
<path style=" stroke:none;fill-rule:evenodd;fill:rgb(13.699341%,12.199402%,12.5%);fill-opacity:1;" d="M 87.003906 60.59375 C 89.96875 60.59375 92.972656 60.59375 95.976563 60.59375 C 114.011719 52.847656 132.421875 49.121094 142.710938 52.929688 C 153.800781 57.757813 152.234375 68.339844 144.191406 78.878906 C 144.488281 79.980469 144.824219 81.078125 145.164063 82.222656 C 153.078125 72.148438 157.652344 62.625 150.878906 55.089844 C 141.226563 46.03125 117.691406 48.613281 87.003906 60.59375 "/>
<path style=" stroke:none;fill-rule:evenodd;fill:rgb(13.699341%,12.199402%,12.5%);fill-opacity:1;" d="M 70.582031 85.363281 C 69.609375 82.488281 66.605469 82.0625 64.996094 84.730469 C 60.210938 95.269531 55.429688 105.808594 50.605469 116.347656 C 48.402344 121.683594 53.820313 121.683594 55.429688 118.761719 C 60.128906 109.152344 64.785156 99.546875 69.441406 89.980469 C 75.703125 91.546875 77.988281 94.210938 76.679688 98.53125 C 73.25 107.585938 67.621094 110.761719 61.144531 112.371094 C 57.082031 112.792969 57.082031 117.238281 60.761719 116.855469 C 69.820313 114.316406 77.3125 110.253906 81.757813 104.160156 C 88.191406 94.59375 82.644531 88.582031 70.582031 85.363281 "/>
<path style=" stroke:none;fill-rule:evenodd;fill:rgb(13.699341%,12.199402%,12.5%);fill-opacity:1;" d="M 85.609375 87.253906 C 87.683594 84.546875 90.140625 84.628906 94.753906 84.460938 C 100.636719 84.503906 105.335938 85.308594 106.179688 88.949219 C 106.984375 92.714844 103.175781 96.988281 95.132813 101.730469 C 93.355469 102.875 94.074219 103.210938 94.371094 104.398438 C 96.402344 109.859375 98.433594 115.191406 100.46875 120.652344 C 98.941406 121.414063 97.417969 122.300781 95.894531 123.105469 C 92.507813 117.222656 89.121094 111.339844 85.738281 105.457031 C 84.339844 103.59375 85.144531 101.605469 87.261719 100.757813 C 93.230469 98.261719 98.140625 94.957031 98.394531 90.726563 C 98.433594 87.761719 91.324219 88.4375 89.925781 92.375 C 87.558594 98.683594 81.121094 93.390625 85.609375 87.253906 "/>
<path style=" stroke:none;fill-rule:evenodd;fill:rgb(13.699341%,12.199402%,12.5%);fill-opacity:1;" d="M 111.6875 85.109375 C 113.679688 85.109375 115.414063 85.109375 117.402344 85.109375 C 114.695313 90.992188 111.984375 96.875 109.316406 102.800781 C 104.449219 113.679688 108.34375 116.050781 114.652344 111.179688 C 119.433594 107.371094 121.128906 102.207031 123.835938 97.296875 C 125.785156 93.53125 127.730469 89.765625 129.722656 86.039063 C 131.242188 83.285156 135.011719 84.050781 133.699219 87.265625 C 128.960938 97.933594 124.34375 108.894531 119.011719 119.308594 C 118.121094 121.128906 115.414063 121.042969 115.203125 119.183594 C 115.074219 117.617188 114.3125 117.363281 112.660156 117.488281 C 110.378906 117.617188 108.046875 117.785156 105.71875 117.953125 C 101.867188 118.039063 97.296875 115.964844 99.625 110.632813 C 103.136719 101.65625 107.285156 93.617188 111.6875 85.109375 "/>
<path style=" stroke:none;fill-rule:evenodd;fill:rgb(13.699341%,12.199402%,12.5%);fill-opacity:1;" d="M 120.839844 118.1875 C 122.699219 118.1875 124.5625 118.1875 126.46875 118.1875 C 129.640625 113.109375 132.816406 108.03125 136.03125 102.90625 C 134.636719 112.050781 141.113281 113.195313 149.113281 103.5 C 147.632813 108.410156 146.191406 113.320313 144.753906 118.1875 C 146.699219 118.1875 148.6875 118.1875 150.679688 118.1875 C 154.066406 108.03125 157.492188 97.871094 160.921875 87.710938 C 162.234375 84.03125 158.804688 83.691406 157.027344 86.144531 C 151.355469 93.765625 145.175781 102.824219 142.425781 101.214844 C 140.351563 99.988281 142.042969 91.945313 143.820313 84.03125 C 144.753906 80.179688 140.6875 81.023438 139.757813 82.929688 C 133.449219 94.695313 127.144531 106.464844 120.839844 118.1875 "/>
<path style=" stroke:none;fill-rule:evenodd;fill:rgb(13.699341%,12.199402%,12.5%);fill-opacity:1;" d="M 184.875 86.546875 C 183.730469 89.085938 182.589844 91.667969 181.445313 94.25 C 177.804688 90.3125 174.164063 88.535156 170.480469 89.722656 C 167.140625 90.863281 166.039063 93.53125 168.832031 96.621094 C 175.6875 104.15625 176.492188 108.851563 172.261719 113.296875 C 166.84375 118.671875 159.898438 119.984375 154.652344 116.894531 C 151.011719 114.269531 153.59375 110.460938 156.894531 112.28125 C 159.859375 113.761719 162.441406 113.507813 165.023438 112.324219 C 168.367188 110.25 168.621094 107.964844 165.867188 105.296875 C 161.253906 100.808594 157.148438 96.113281 162.566406 89.847656 C 168.789063 83.371094 176.789063 83.371094 184.875 86.546875 "/>
</g>
</svg>
